<svg xmlns="http://www.w3.org/2000/svg" style="display: none;">

  <symbol id="icon-angular" viewBox="0 0 24 24">
    <rect width="24" height="24" fill="none"></rect>
    <path d="M12,2.5l8.84,3.15L19.5,17.35,12,21.5,4.5,17.35,3.16,5.65,12,2.5m0,2.1L6.47,17H8.53l1.11-2.78h4.7L15.45,17H17.5L12,4.6m1.62,7.9H10.39L12,8.63Z"></path>
  </symbol>

<symbol id="icon-js" viewBox="0 0 512 512">
  <path fill-rule="evenodd" clip-rule="evenodd" d="M1.008,0.5C0.438,0.583,0.48,1.27,0.521,1.958 c0,169.668,0,339.31,0,508.974c169.364,1.135,340.808,0.162,510.979,0.486c0-170.309,0-340.61,0-510.918 C341.342,0.5,171.167,0.5,1.008,0.5z M259.893,452.167c-11.822,11.919-30.478,18.938-53.429,18.938 c-37.643,0-58.543-18.34-71.884-43.711c12.842-8.2,25.966-16.122,39.344-23.795c5.456,15.262,23.886,32.42,44.683,21.857 c13.183-6.699,11.661-27.01,11.661-49.054c0-45.773,0-98.578,0-139.872c-0.042-0.688-0.083-1.375,0.482-1.458 c15.707,0,31.413,0,47.116,0c0,36.788,0,78.402,0,117.529C277.866,395.199,280.91,430.988,259.893,452.167z M470.696,409.917 c-2.674,39.884-35.243,61.063-79.17,61.188c-43.062,0.124-70.624-19.013-87.433-48.567c12.085-8.317,25.778-15.017,38.375-22.822 c10.08,15.761,27.537,30.91,53.429,28.652c16.131-1.406,34.856-14.555,24.285-34.482c-5.127-9.66-17.516-14.567-28.656-19.425 c-35.352-15.424-76.828-29.571-72.861-84.992c1.327-18.514,9.852-31.525,20.889-40.796c11.311-9.5,26.46-15.867,46.629-16.511 c36.629-1.173,56.723,15.12,70.429,37.884c-11.664,8.891-24.514,16.608-37.401,24.281c-4.229-12.995-24.644-25.658-41.772-17.969 c-7.789,3.493-14.788,13.761-10.684,26.224c3.66,11.115,18.589,17.199,30.599,22.344 C433.706,340.486,474.331,355.693,470.696,409.917z"/>
</symbol>

<symbol id="icon-php" viewBox="0 0 512 512">
  <path d="M171.844,204.374c-11.137-12.748-28.856-19.123-53.146-19.123H37.96L0.5,377.99h41.984l9.96-51.241 h35.963c15.869,0,28.923-1.663,39.173-5.003c10.247-3.33,19.562-8.92,27.945-16.767c7.037-6.467,12.725-13.599,17.087-21.4 c4.354-7.797,7.448-16.401,9.278-25.812C186.333,234.919,182.98,217.124,171.844,204.374z M138.493,254.823 c-2.903,14.917-8.492,25.563-16.775,31.941c-8.288,6.38-20.897,9.569-37.822,9.569H58.354l15.678-80.667H102.8 c15.952,0,26.582,2.943,31.896,8.832C140.006,230.39,141.275,240.497,138.493,254.823z M337.828,237.059l-17.429,89.69h-42.317 l16.572-85.278c1.884-9.702,1.193-16.32-2.084-19.847c-3.272-3.529-10.242-5.296-20.9-5.296h-33.289l-21.458,110.421h-41.656 l37.46-192.739h41.656l-9.959,51.241h37.111c23.346,0,39.452,4.077,48.317,12.218C338.718,205.615,341.371,218.813,337.828,237.059 z M499.554,204.374c-11.137-12.748-28.856-19.123-53.142-19.123h-80.738l-37.46,192.739h41.984l9.96-51.241h35.963 c15.869,0,28.918-1.663,39.169-5.003c10.247-3.33,19.562-8.92,27.945-16.767c7.036-6.467,12.729-13.599,17.088-21.4 c4.354-7.797,7.447-16.401,9.277-25.812C514.042,234.919,510.694,217.124,499.554,204.374z M466.206,254.823 c-2.902,14.917-8.491,25.563-16.779,31.941c-8.284,6.38-20.896,9.569-37.822,9.569h-25.537l15.678-80.667h28.765 c15.952,0,26.581,2.943,31.899,8.832C467.72,230.39,468.984,240.497,466.206,254.823z"/>
</symbol>

<symbol id="icon-java" viewBox="0 0 32 32">
  <path d="M13.168 30.901c5.401 0.346 13.695-0.191 13.891-2.747 0 0-0.377 0.968-4.464 1.738-2.257 0.407-4.855 0.639-7.508 0.639-2.173 0-4.309-0.156-6.398-0.457l0.239 0.028c0-0.001 0.691 0.571 4.24 0.799zM19 1.004s3.117 3.117-2.955 7.91c-4.869 3.845-1.11 6.038-0.001 8.543-2.842-2.566-4.927-4.821-3.529-6.922 2.054-3.085 7.744-4.58 6.486-9.531zM22.393 22.978c5.627-2.924 3.025-5.735 1.21-5.355-0.249 0.047-0.465 0.107-0.674 0.182l0.030-0.009c0.119-0.167 0.283-0.296 0.474-0.369l0.007-0.002c3.593-1.263 6.356 3.725-1.16 5.701 0.046-0.041 0.084-0.090 0.111-0.145l0.001-0.003zM12.616 17.512s-5.451 1.295-1.929 1.764c0.948 0.078 2.052 0.122 3.166 0.122 1.424 0 2.831-0.073 4.218-0.214l-0.174 0.014c2.257-0.19 4.521-0.596 4.521-0.596-0.531 0.232-0.982 0.477-1.409 0.756l0.037-0.022c-5.535 1.456-16.228 0.779-13.149-0.71 1.357-0.703 2.963-1.115 4.665-1.115 0.019 0 0.038 0 0.057 0h-0.003zM25.16 26.627s0.849 0.699-0.933 1.238c-3.389 1.027-14.106 1.336-17.081 0.041-1.070-0.466 0.937-1.112 1.567-1.247 0.291-0.074 0.626-0.117 0.97-0.117 0.023 0 0.045 0 0.068 0.001l-0.003-0c-1.191-0.839-7.693 1.646-3.303 2.358 11.972 1.941 21.821-0.875 18.716-2.274zM17.395 15.344c0.314 0.377 0.505 0.868 0.505 1.402 0 0.719-0.346 1.358-0.88 1.759l-0.006 0.004s3.673-1.897 1.986-4.271c-1.576-2.214-2.784-3.314 3.758-7.108 0-0.001-10.267 2.563-5.363 8.214zM11.346 20.915s-1.285 0.951 0.677 1.155c0.859 0.108 1.852 0.169 2.86 0.169 1.826 0 3.605-0.202 5.315-0.585l-0.162 0.030c0.344 0.322 0.755 0.578 1.209 0.744l0.025 0.008c-7.097 2.076-15.004 0.162-9.925-1.522zM12.065 24.198s-1.146 0.667 0.816 0.892c0.719 0.107 1.548 0.168 2.392 0.168 1.354 0 2.671-0.157 3.934-0.455l-0.116 0.023c0.467 0.285 1.010 0.557 1.577 0.782l0.074 0.026c-5.872 2.516-13.287-0.147-8.676-1.436z"/>
</symbol>

<symbol id="icon-bootstrap" viewBox="0 0 24 24">
  <path fill-rule="evenodd" clip-rule="evenodd" d="M4.98488 2C3.61546 2 2.60217 3.19858 2.64753 4.49844C2.69105 5.74725 2.63451 7.36461 2.22732 8.68359C1.81892 10.0064 1.1282 10.8444 0 10.952V12.1666C1.1282 12.2742 1.81892 13.1122 2.22732 14.4351C2.63451 15.754 2.69105 17.3714 2.64753 18.6202C2.60217 19.9199 3.61546 21.1186 4.98508 21.1186H19.0169C20.3864 21.1186 21.3995 19.9201 21.3541 18.6202C21.3106 17.3714 21.3671 15.754 21.7743 14.4351C22.1829 13.1122 22.8718 12.2742 24 12.1666V10.952C22.8718 10.8444 22.1829 10.0064 21.7743 8.68359C21.3671 7.36481 21.3106 5.74725 21.3541 4.49844C21.3995 3.19878 20.3864 2 19.0169 2H4.98488ZM16.2712 13.7687C16.2712 15.5586 14.9361 16.6441 12.7206 16.6441H8.94915C8.84127 16.6441 8.7378 16.6012 8.66152 16.5249C8.58523 16.4486 8.54237 16.3452 8.54237 16.2373V6.88136C8.54237 6.77347 8.58523 6.67001 8.66152 6.59372C8.7378 6.51743 8.84127 6.47458 8.94915 6.47458H12.6991C14.5464 6.47458 15.7588 7.47525 15.7588 9.01166C15.7588 10.09 14.9433 11.0555 13.9041 11.2245V11.2809C15.3187 11.4361 16.2712 12.4156 16.2712 13.7687ZM12.3094 7.76407H10.1589V10.8015H11.9701C13.3702 10.8015 14.1423 10.2377 14.1423 9.2299C14.1423 8.28556 13.4784 7.76407 12.3094 7.76407ZM10.1589 12.0068V15.3542H12.3885C13.8462 15.3542 14.6184 14.7692 14.6184 13.6699C14.6184 12.5704 13.8246 12.0066 12.2947 12.0066H10.1589V12.0068Z"/>
</symbol>

<symbol id="icon-html5" viewBox="0 0 32 32">
  <path d="M11.677 13.196l-0.289-3.387 12.536 0.004 0.287-3.268-16.421-0.004 0.87 9.983h11.374l-0.406 4.27-3.627 1.002-3.683-1.009-0.234-2.63h-3.252l0.411 5.198 6.757 1.807 6.704-1.798 0.927-10.166h-11.954zM2.914 1.045h26.172l-2.38 26.874-10.734 3.037-10.673-3.038z"/>
</symbol>

<symbol id="icon-css3" viewBox="0 0 512 512">
  <path d="M483.111,0.501l-42.59,461.314l-184.524,49.684L71.47,461.815L28.889,0.501H483.111z M397.29,94.302 H255.831H111.866l6.885,55.708h137.08h7.7l-7.7,3.205l-132.07,55.006l4.38,54.453l127.69,0.414l68.438,0.217l-4.381,72.606 l-64.058,18.035v-0.057l-0.525,0.146l-61.864-15.617l-3.754-45.07h-0.205H132.1h-0.202l7.511,87.007l116.423,34.429v-0.062 l0.21,0.062l115.799-33.802l15.021-172.761h-131.03h-0.323l0.323-0.14l135.83-58.071L397.29,94.302z"/>
</symbol>

<symbol id="icon-tailwind" viewBox="0 0 24 24">
  <path fill-rule="evenodd" clip-rule="evenodd" d="M12 6.036c-2.667 0-4.333 1.325-5 3.976 1-1.325 2.167-1.822 3.5-1.491.761.189 1.305.738 1.906 1.345C13.387 10.855 14.522 12 17 12c2.667 0 4.333-1.325 5-3.976-1 1.325-2.166 1.822-3.5 1.491-.761-.189-1.305-.738-1.907-1.345-.98-.99-2.114-2.134-4.593-2.134zM7 12c-2.667 0-4.333 1.325-5 3.976 1-1.326 2.167-1.822 3.5-1.491.761.189 1.305.738 1.907 1.345.98.989 2.115 2.134 4.594 2.134 2.667 0 4.333-1.325 5-3.976-1 1.325-2.167 1.822-3.5 1.491-.761-.189-1.305-.738-1.906-1.345C10.613 13.145 9.478 12 7 12z"/>
</symbol>

<symbol id="icon-figma" viewBox="0 0 256 256">
  <path d="M178.94238,94.00049A37.991,37.991,0,0,0,162,22.001H94A37.991,37.991,0,0,0,77.05762,94.00049,37.97671,37.97671,0,0,0,77.05811,162,37.99416,37.99416,0,1,0,132,195.99951V151.28223a37.98414,37.98414,0,1,0,46.94238-57.28174ZM192,60.001a30.03343,30.03343,0,0,1-29.98047,29.99951L162,90l-.03857.001L132,90V30.001h30A30.03406,30.03406,0,0,1,192,60.001ZM138.71729,98.00024A38.32407,38.32407,0,0,0,132,104.71777V98.00012ZM64,60.001a30.03406,30.03406,0,0,1,30-30h30V90H94l-.019.00049A30.03392,30.03392,0,0,1,64,60.001ZM94,225.999A29.99951,29.99951,0,1,1,94,166l30-.00085v30.00036A30.03364,30.03364,0,0,1,94,225.999Zm30-68L94,158a29.99976,29.99976,0,0,1-.019-59.99951L94,98.001l30-.00086ZM162,158a29.99952,29.99952,0,0,1-.03857-59.999H162l.019-.00049A29.99976,29.99976,0,0,1,162,158Z"/>
</symbol>

<symbol id="icon-mail" viewBox="0 0 24 24">
  <path d="M22 7L13.009 12.727a2 2 0 0 1-2.009 0L2 7" 
        stroke="currentColor" stroke-width="2" stroke-linecap="round" stroke-linejoin="round" fill="none"/>
  <rect x="2" y="4" width="20" height="16" rx="2" 
        stroke="currentColor" stroke-width="2" stroke-linecap="round" stroke-linejoin="round" fill="none"/>
</symbol>

<symbol id="icon-github" viewBox="0 0 24 24">
  <path d="M15 22v-4a4.8 4.8 0 0 0-1-3.5c3 0 6-2 6-5.5.08-1.25-.27-2.48-1-3.5.28-1.15.28-2.35 0-3.5 0 0-1 0-3 1.5-2.64-.5-5.36-.5-8 0C6 2 5 2 5 2c-.3 1.15-.3 2.35 0 3.5A5.403 5.403 0 0 0 4 9c0 3.5 3 5.5 6 5.5-.39.49-.68 1.05-.85 1.65-.17.6-.22 1.23-.15 1.85v4" 
        stroke="currentColor" stroke-width="2" stroke-linecap="round" stroke-linejoin="round" fill="none"/>
  <path d="M9 18c-4.51 2-5-2-7-2" 
        stroke="currentColor" stroke-width="2" stroke-linecap="round" stroke-linejoin="round" fill="none"/>
</symbol>

<symbol id="icon-linkedin" viewBox="0 0 24 24">
  <path d="M16 8a6 6 0 0 1 6 6v7h-4v-7a2 2 0 0 0-2-2 2 2 0 0 0-2 2v7h-4v-7a6 6 0 0 1 6-6z" 
        stroke="currentColor" stroke-width="2" stroke-linecap="round" stroke-linejoin="round" fill="none"/>
  <rect width="4" height="12" x="2" y="9" 
        stroke="currentColor" stroke-width="2" stroke-linecap="round" stroke-linejoin="round" fill="none"/>
  <circle cx="4" cy="4" r="2" 
        stroke="currentColor" stroke-width="2" stroke-linecap="round" stroke-linejoin="round" fill="none"/>
</symbol>

<symbol id="icon-laravel" viewBox="0 0 32 32">
  <path d="M13.143 23.585l10.46-5.97-4.752-2.736-10.453 6.019zM24.084 11.374l-4.757-2.736v5.417l4.758 2.737zM24.559 5.078l-4.756 2.736 4.756 2.736 4.755-2.737zM9.911 18.928l2.76-1.589v-11.934l-4.758 2.738v11.934zM7.437 1.846l-4.756 2.737 4.756 2.737 4.753-2.737zM2.204 5.406v18.452l10.464 6.022v-5.471l-5.472-3.096c-0.018-0.013-0.032-0.027-0.051-0.039-0.014-0.013-0.030-0.023-0.044-0.034l-0.001-0.003c-0.015-0.015-0.028-0.031-0.039-0.049l-0.001-0.001c-0.014-0.013-0.025-0.028-0.035-0.045l-0.001-0.001h-0.003c-0.008-0.015-0.016-0.035-0.024-0.055l-0.001-0.004c-0.007-0.015-0.015-0.032-0.022-0.051l-0.001-0.003c-0.004-0.020-0.008-0.045-0.010-0.070l-0-0.002c-0.003-0.015-0.006-0.033-0.008-0.051l-0-0.001v-12.759l-2.757-1.59zM24.085 23.857v-5.422l-10.464 5.974v5.47zM29.789 14.055v-5.417l-4.756 2.737v5.417zM30.725 7.69c0.011 0.038 0.018 0.081 0.018 0.126v0 6.513c-0 0.176-0.095 0.329-0.237 0.411l-0.002 0.001-5.468 3.149v6.241c-0 0.175-0.095 0.328-0.236 0.411l-0.002 0.001-11.416 6.57c-0.024 0.013-0.052 0.025-0.081 0.033l-0.003 0.001-0.030 0.013c-0.036 0.011-0.078 0.017-0.121 0.017s-0.085-0.006-0.125-0.018l0.003 0.001c-0.015-0.004-0.027-0.009-0.039-0.016l0.001 0.001c-0.031-0.011-0.057-0.021-0.082-0.033l0.004 0.002-11.413-6.57c-0.144-0.084-0.239-0.237-0.239-0.412v0-19.548c0-0.044 0.007-0.087 0.019-0.127l-0.001 0.003c0.004-0.015 0.013-0.025 0.018-0.040 0.009-0.029 0.019-0.053 0.030-0.076l-0.001 0.003c0.008-0.016 0.018-0.030 0.029-0.042l-0 0 0.042-0.057 0.047-0.034c0.018-0.015 0.034-0.030 0.052-0.043h0.001l5.708-3.285c0.068-0.040 0.15-0.064 0.237-0.064s0.169 0.024 0.239 0.065l-0.002-0.001 5.71 3.285c0.019 0.013 0.035 0.027 0.051 0.042l-0-0 0.048 0.034c0.016 0.018 0.025 0.038 0.042 0.057 0.012 0.012 0.022 0.026 0.031 0.041l0.001 0.001c0.010 0.020 0.020 0.044 0.029 0.069l0.001 0.004 0.016 0.040c0.011 0.035 0.018 0.076 0.018 0.118 0 0.002 0 0.004-0 0.006v-0 12.208l4.756-2.737v-6.241c0-0.001 0-0.002 0-0.002 0-0.043 0.006-0.085 0.017-0.125l-0.001 0.003c0.004-0.013 0.013-0.025 0.016-0.040 0.010-0.030 0.020-0.054 0.032-0.078l-0.002 0.004c0.009-0.015 0.023-0.025 0.032-0.042 0.015-0.019 0.027-0.038 0.042-0.054 0.014-0.013 0.029-0.025 0.045-0.035l0.001-0.001c0.018-0.013 0.033-0.029 0.052-0.040h0.001l5.708-3.286c0.068-0.040 0.15-0.064 0.237-0.064s0.169 0.024 0.239 0.065l-0.002-0.001 5.708 3.286c0.020 0.013 0.034 0.027 0.053 0.039 0.015 0.013 0.032 0.023 0.046 0.035 0.016 0.018 0.028 0.038 0.043 0.056 0.011 0.012 0.021 0.026 0.030 0.040l0.001 0.001c0.012 0.022 0.022 0.047 0.030 0.073l0.001 0.003c0.008 0.012 0.014 0.025 0.019 0.039l0 0.001z"/>
</symbol>


  <!-- Puedes añadir más símbolos aquí -->
</svg>