<svg xmlns="http://www.w3.org/2000/svg" style="display: none;">

  <symbol id="icon-angular" viewBox="0 0 24 24">
    <rect width="24" height="24" fill="none"></rect>
    <path d="M12,2.5l8.84,3.15L19.5,17.35,12,21.5,4.5,17.35,3.16,5.65,12,2.5m0,2.1L6.47,17H8.53l1.11-2.78h4.7L15.45,17H17.5L12,4.6m1.62,7.9H10.39L12,8.63Z"></path>
  </symbol>

<symbol id="icon-js" viewBox="0 0 512 512">
  <path fill-rule="evenodd" clip-rule="evenodd" d="M1.008,0.5C0.438,0.583,0.48,1.27,0.521,1.958 c0,169.668,0,339.31,0,508.974c169.364,1.135,340.808,0.162,510.979,0.486c0-170.309,0-340.61,0-510.918 C341.342,0.5,171.167,0.5,1.008,0.5z M259.893,452.167c-11.822,11.919-30.478,18.938-53.429,18.938 c-37.643,0-58.543-18.34-71.884-43.711c12.842-8.2,25.966-16.122,39.344-23.795c5.456,15.262,23.886,32.42,44.683,21.857 c13.183-6.699,11.661-27.01,11.661-49.054c0-45.773,0-98.578,0-139.872c-0.042-0.688-0.083-1.375,0.482-1.458 c15.707,0,31.413,0,47.116,0c0,36.788,0,78.402,0,117.529C277.866,395.199,280.91,430.988,259.893,452.167z M470.696,409.917 c-2.674,39.884-35.243,61.063-79.17,61.188c-43.062,0.124-70.624-19.013-87.433-48.567c12.085-8.317,25.778-15.017,38.375-22.822 c10.08,15.761,27.537,30.91,53.429,28.652c16.131-1.406,34.856-14.555,24.285-34.482c-5.127-9.66-17.516-14.567-28.656-19.425 c-35.352-15.424-76.828-29.571-72.861-84.992c1.327-18.514,9.852-31.525,20.889-40.796c11.311-9.5,26.46-15.867,46.629-16.511 c36.629-1.173,56.723,15.12,70.429,37.884c-11.664,8.891-24.514,16.608-37.401,24.281c-4.229-12.995-24.644-25.658-41.772-17.969 c-7.789,3.493-14.788,13.761-10.684,26.224c3.66,11.115,18.589,17.199,30.599,22.344 C433.706,340.486,474.331,355.693,470.696,409.917z"/>
</symbol>

<symbol id="icon-php" viewBox="0 0 512 512">
  <path d="M171.844,204.374c-11.137-12.748-28.856-19.123-53.146-19.123H37.96L0.5,377.99h41.984l9.96-51.241 h35.963c15.869,0,28.923-1.663,39.173-5.003c10.247-3.33,19.562-8.92,27.945-16.767c7.037-6.467,12.725-13.599,17.087-21.4 c4.354-7.797,7.448-16.401,9.278-25.812C186.333,234.919,182.98,217.124,171.844,204.374z M138.493,254.823 c-2.903,14.917-8.492,25.563-16.775,31.941c-8.288,6.38-20.897,9.569-37.822,9.569H58.354l15.678-80.667H102.8 c15.952,0,26.582,2.943,31.896,8.832C140.006,230.39,141.275,240.497,138.493,254.823z M337.828,237.059l-17.429,89.69h-42.317 l16.572-85.278c1.884-9.702,1.193-16.32-2.084-19.847c-3.272-3.529-10.242-5.296-20.9-5.296h-33.289l-21.458,110.421h-41.656 l37.46-192.739h41.656l-9.959,51.241h37.111c23.346,0,39.452,4.077,48.317,12.218C338.718,205.615,341.371,218.813,337.828,237.059 z M499.554,204.374c-11.137-12.748-28.856-19.123-53.142-19.123h-80.738l-37.46,192.739h41.984l9.96-51.241h35.963 c15.869,0,28.918-1.663,39.169-5.003c10.247-3.33,19.562-8.92,27.945-16.767c7.036-6.467,12.729-13.599,17.088-21.4 c4.354-7.797,7.447-16.401,9.277-25.812C514.042,234.919,510.694,217.124,499.554,204.374z M466.206,254.823 c-2.902,14.917-8.491,25.563-16.779,31.941c-8.284,6.38-20.896,9.569-37.822,9.569h-25.537l15.678-80.667h28.765 c15.952,0,26.581,2.943,31.899,8.832C467.72,230.39,468.984,240.497,466.206,254.823z"/>
</symbol>

<symbol id="icon-java" viewBox="0 0 32 32">
  <path d="M13.168 30.901c5.401 0.346 13.695-0.191 13.891-2.747 0 0-0.377 0.968-4.464 1.738-2.257 0.407-4.855 0.639-7.508 0.639-2.173 0-4.309-0.156-6.398-0.457l0.239 0.028c0-0.001 0.691 0.571 4.24 0.799zM19 1.004s3.117 3.117-2.955 7.91c-4.869 3.845-1.11 6.038-0.001 8.543-2.842-2.566-4.927-4.821-3.529-6.922 2.054-3.085 7.744-4.58 6.486-9.531zM22.393 22.978c5.627-2.924 3.025-5.735 1.21-5.355-0.249 0.047-0.465 0.107-0.674 0.182l0.030-0.009c0.119-0.167 0.283-0.296 0.474-0.369l0.007-0.002c3.593-1.263 6.356 3.725-1.16 5.701 0.046-0.041 0.084-0.090 0.111-0.145l0.001-0.003zM12.616 17.512s-5.451 1.295-1.929 1.764c0.948 0.078 2.052 0.122 3.166 0.122 1.424 0 2.831-0.073 4.218-0.214l-0.174 0.014c2.257-0.19 4.521-0.596 4.521-0.596-0.531 0.232-0.982 0.477-1.409 0.756l0.037-0.022c-5.535 1.456-16.228 0.779-13.149-0.71 1.357-0.703 2.963-1.115 4.665-1.115 0.019 0 0.038 0 0.057 0h-0.003zM25.16 26.627s0.849 0.699-0.933 1.238c-3.389 1.027-14.106 1.336-17.081 0.041-1.070-0.466 0.937-1.112 1.567-1.247 0.291-0.074 0.626-0.117 0.97-0.117 0.023 0 0.045 0 0.068 0.001l-0.003-0c-1.191-0.839-7.693 1.646-3.303 2.358 11.972 1.941 21.821-0.875 18.716-2.274zM17.395 15.344c0.314 0.377 0.505 0.868 0.505 1.402 0 0.719-0.346 1.358-0.88 1.759l-0.006 0.004s3.673-1.897 1.986-4.271c-1.576-2.214-2.784-3.314 3.758-7.108 0-0.001-10.267 2.563-5.363 8.214zM11.346 20.915s-1.285 0.951 0.677 1.155c0.859 0.108 1.852 0.169 2.86 0.169 1.826 0 3.605-0.202 5.315-0.585l-0.162 0.030c0.344 0.322 0.755 0.578 1.209 0.744l0.025 0.008c-7.097 2.076-15.004 0.162-9.925-1.522zM12.065 24.198s-1.146 0.667 0.816 0.892c0.719 0.107 1.548 0.168 2.392 0.168 1.354 0 2.671-0.157 3.934-0.455l-0.116 0.023c0.467 0.285 1.010 0.557 1.577 0.782l0.074 0.026c-5.872 2.516-13.287-0.147-8.676-1.436z"/>
</symbol>

<symbol id="icon-bootstrap" viewBox="0 0 24 24">
  <path fill-rule="evenodd" clip-rule="evenodd" d="M4.98488 2C3.61546 2 2.60217 3.19858 2.64753 4.49844C2.69105 5.74725 2.63451 7.36461 2.22732 8.68359C1.81892 10.0064 1.1282 10.8444 0 10.952V12.1666C1.1282 12.2742 1.81892 13.1122 2.22732 14.4351C2.63451 15.754 2.69105 17.3714 2.64753 18.6202C2.60217 19.9199 3.61546 21.1186 4.98508 21.1186H19.0169C20.3864 21.1186 21.3995 19.9201 21.3541 18.6202C21.3106 17.3714 21.3671 15.754 21.7743 14.4351C22.1829 13.1122 22.8718 12.2742 24 12.1666V10.952C22.8718 10.8444 22.1829 10.0064 21.7743 8.68359C21.3671 7.36481 21.3106 5.74725 21.3541 4.49844C21.3995 3.19878 20.3864 2 19.0169 2H4.98488ZM16.2712 13.7687C16.2712 15.5586 14.9361 16.6441 12.7206 16.6441H8.94915C8.84127 16.6441 8.7378 16.6012 8.66152 16.5249C8.58523 16.4486 8.54237 16.3452 8.54237 16.2373V6.88136C8.54237 6.77347 8.58523 6.67001 8.66152 6.59372C8.7378 6.51743 8.84127 6.47458 8.94915 6.47458H12.6991C14.5464 6.47458 15.7588 7.47525 15.7588 9.01166C15.7588 10.09 14.9433 11.0555 13.9041 11.2245V11.2809C15.3187 11.4361 16.2712 12.4156 16.2712 13.7687ZM12.3094 7.76407H10.1589V10.8015H11.9701C13.3702 10.8015 14.1423 10.2377 14.1423 9.2299C14.1423 8.28556 13.4784 7.76407 12.3094 7.76407ZM10.1589 12.0068V15.3542H12.3885C13.8462 15.3542 14.6184 14.7692 14.6184 13.6699C14.6184 12.5704 13.8246 12.0066 12.2947 12.0066H10.1589V12.0068Z"/>
</symbol>

<symbol id="icon-html5" viewBox="0 0 32 32">
  <path d="M11.677 13.196l-0.289-3.387 12.536 0.004 0.287-3.268-16.421-0.004 0.87 9.983h11.374l-0.406 4.27-3.627 1.002-3.683-1.009-0.234-2.63h-3.252l0.411 5.198 6.757 1.807 6.704-1.798 0.927-10.166h-11.954zM2.914 1.045h26.172l-2.38 26.874-10.734 3.037-10.673-3.038z"/>
</symbol>

<symbol id="icon-css3" viewBox="0 0 512 512">
  <path d="M483.111,0.501l-42.59,461.314l-184.524,49.684L71.47,461.815L28.889,0.501H483.111z M397.29,94.302 H255.831H111.866l6.885,55.708h137.08h7.7l-7.7,3.205l-132.07,55.006l4.38,54.453l127.69,0.414l68.438,0.217l-4.381,72.606 l-64.058,18.035v-0.057l-0.525,0.146l-61.864-15.617l-3.754-45.07h-0.205H132.1h-0.202l7.511,87.007l116.423,34.429v-0.062 l0.21,0.062l115.799-33.802l15.021-172.761h-131.03h-0.323l0.323-0.14l135.83-58.071L397.29,94.302z"/>
</symbol>

<symbol id="icon-tailwind" viewBox="0 0 24 24">
  <path fill-rule="evenodd" clip-rule="evenodd" d="M12 6.036c-2.667 0-4.333 1.325-5 3.976 1-1.325 2.167-1.822 3.5-1.491.761.189 1.305.738 1.906 1.345C13.387 10.855 14.522 12 17 12c2.667 0 4.333-1.325 5-3.976-1 1.325-2.166 1.822-3.5 1.491-.761-.189-1.305-.738-1.907-1.345-.98-.99-2.114-2.134-4.593-2.134zM7 12c-2.667 0-4.333 1.325-5 3.976 1-1.326 2.167-1.822 3.5-1.491.761.189 1.305.738 1.907 1.345.98.989 2.115 2.134 4.594 2.134 2.667 0 4.333-1.325 5-3.976-1 1.325-2.167 1.822-3.5 1.491-.761-.189-1.305-.738-1.906-1.345C10.613 13.145 9.478 12 7 12z"/>
</symbol>

<symbol id="icon-figma" viewBox="0 0 256 256">
  <path d="M178.94238,94.00049A37.991,37.991,0,0,0,162,22.001H94A37.991,37.991,0,0,0,77.05762,94.00049,37.97671,37.97671,0,0,0,77.05811,162,37.99416,37.99416,0,1,0,132,195.99951V151.28223a37.98414,37.98414,0,1,0,46.94238-57.28174ZM192,60.001a30.03343,30.03343,0,0,1-29.98047,29.99951L162,90l-.03857.001L132,90V30.001h30A30.03406,30.03406,0,0,1,192,60.001ZM138.71729,98.00024A38.32407,38.32407,0,0,0,132,104.71777V98.00012ZM64,60.001a30.03406,30.03406,0,0,1,30-30h30V90H94l-.019.00049A30.03392,30.03392,0,0,1,64,60.001ZM94,225.999A29.99951,29.99951,0,1,1,94,166l30-.00085v30.00036A30.03364,30.03364,0,0,1,94,225.999Zm30-68L94,158a29.99976,29.99976,0,0,1-.019-59.99951L94,98.001l30-.00086ZM162,158a29.99952,29.99952,0,0,1-.03857-59.999H162l.019-.00049A29.99976,29.99976,0,0,1,162,158Z"/>
</symbol>

<symbol id="icon-mail" viewBox="0 0 32 32">
  <path d="M2 11.9556C2 8.47078 2 6.7284 2.67818 5.39739C3.27473 4.22661 4.22661 3.27473 5.39739 2.67818C6.7284 2 8.47078 2 11.9556 2H20.0444C23.5292 2 25.2716 2 26.6026 2.67818C27.7734 3.27473 28.7253 4.22661 29.3218 5.39739C30 6.7284 30 8.47078 30 11.9556V20.0444C30 23.5292 30 25.2716 29.3218 26.6026C28.7253 27.7734 27.7734 28.7253 26.6026 29.3218C25.2716 30 23.5292 30 20.0444 30H11.9556C8.47078 30 6.7284 30 5.39739 29.3218C4.22661 28.7253 3.27473 27.7734 2.67818 26.6026C2 25.2716 2 23.5292 2 20.0444V11.9556Z" fill="white"/>
  <path d="M22.0515 8.52295L16.0644 13.1954L9.94043 8.52295V8.52421L9.94783 8.53053V15.0732L15.9954 19.8466L22.0515 15.2575V8.52295Z" fill="#EA4335"/>
  <path d="M23.6231 7.38639L22.0508 8.52292V15.2575L26.9983 11.459V9.17074C26.9983 9.17074 26.3978 5.90258 23.6231 7.38639Z" fill="#FBBC05"/>
  <path d="M22.0508 15.2575V23.9924H25.8428C25.8428 23.9924 26.9219 23.8813 26.9995 22.6513V11.459L22.0508 15.2575Z" fill="#34A853"/>
  <path d="M9.94811 24.0001V15.0732L9.94043 15.0669L9.94811 24.0001Z" fill="#C5221F"/>
  <path d="M9.94014 8.52404L8.37646 7.39382C5.60179 5.91001 5 9.17692 5 9.17692V11.4651L9.94014 15.0667V8.52404Z" fill="#C5221F"/>
  <path d="M9.94043 8.52441V15.0671L9.94811 15.0734V8.53073L9.94043 8.52441Z" fill="#C5221F"/>
  <path d="M5 11.4668V22.6591C5.07646 23.8904 6.15673 24.0003 6.15673 24.0003H9.94877L9.94014 15.0671L5 11.4668Z" fill="#4285F4"/>
</symbol>

<symbol id="icon-github" viewBox="0 0 24 24">
  <path d="M15 22v-4a4.8 4.8 0 0 0-1-3.5c3 0 6-2 6-5.5.08-1.25-.27-2.48-1-3.5.28-1.15.28-2.35 0-3.5 0 0-1 0-3 1.5-2.64-.5-5.36-.5-8 0C6 2 5 2 5 2c-.3 1.15-.3 2.35 0 3.5A5.403 5.403 0 0 0 4 9c0 3.5 3 5.5 6 5.5-.39.49-.68 1.05-.85 1.65-.17.6-.22 1.23-.15 1.85v4" 
        stroke="currentColor" stroke-width="2" stroke-linecap="round" stroke-linejoin="round" fill="none"/>
  <path d="M9 18c-4.51 2-5-2-7-2" 
        stroke="currentColor" stroke-width="2" stroke-linecap="round" stroke-linejoin="round" fill="none"/>
</symbol>

<symbol id="icon-linkedin" viewBox="0 0 112.196 112.196">
  <circle fill="#007AB9" cx="56.098" cy="56.097" r="56.098"/>
  <path fill="#F1F2F2" d="M89.616,60.611v23.128H76.207V62.161c0-5.418-1.936-9.118-6.791-9.118
    c-3.705,0-5.906,2.491-6.878,4.903c-0.353,0.862-0.444,2.059-0.444,3.268v22.524H48.684c0,0,0.18-36.546,0-40.329h13.411v5.715
    c-0.027,0.045-0.065,0.089-0.089,0.132h0.089v-0.132c1.782-2.742,4.96-6.662,12.085-6.662
    C83.002,42.462,89.616,48.226,89.616,60.611L89.616,60.611z M34.656,23.969c-4.587,0-7.588,3.011-7.588,6.967
    c0,3.872,2.914,6.97,7.412,6.97h0.087c4.677,0,7.585-3.098,7.585-6.97C42.063,26.98,39.244,23.969,34.656,23.969L34.656,23.969z
    M27.865,83.739H41.27V43.409H27.865V83.739z"/>
</symbol>

<symbol id="icon-laravel" viewBox="0 0 32 32">
  <path d="M13.143 23.585l10.46-5.97-4.752-2.736-10.453 6.019zM24.084 11.374l-4.757-2.736v5.417l4.758 2.737zM24.559 5.078l-4.756 2.736 4.756 2.736 4.755-2.737zM9.911 18.928l2.76-1.589v-11.934l-4.758 2.738v11.934zM7.437 1.846l-4.756 2.737 4.756 2.737 4.753-2.737zM2.204 5.406v18.452l10.464 6.022v-5.471l-5.472-3.096c-0.018-0.013-0.032-0.027-0.051-0.039-0.014-0.013-0.030-0.023-0.044-0.034l-0.001-0.003c-0.015-0.015-0.028-0.031-0.039-0.049l-0.001-0.001c-0.014-0.013-0.025-0.028-0.035-0.045l-0.001-0.001h-0.003c-0.008-0.015-0.016-0.035-0.024-0.055l-0.001-0.004c-0.007-0.015-0.015-0.032-0.022-0.051l-0.001-0.003c-0.004-0.020-0.008-0.045-0.010-0.070l-0-0.002c-0.003-0.015-0.006-0.033-0.008-0.051l-0-0.001v-12.759l-2.757-1.59zM24.085 23.857v-5.422l-10.464 5.974v5.47zM29.789 14.055v-5.417l-4.756 2.737v5.417zM30.725 7.69c0.011 0.038 0.018 0.081 0.018 0.126v0 6.513c-0 0.176-0.095 0.329-0.237 0.411l-0.002 0.001-5.468 3.149v6.241c-0 0.175-0.095 0.328-0.236 0.411l-0.002 0.001-11.416 6.57c-0.024 0.013-0.052 0.025-0.081 0.033l-0.003 0.001-0.030 0.013c-0.036 0.011-0.078 0.017-0.121 0.017s-0.085-0.006-0.125-0.018l0.003 0.001c-0.015-0.004-0.027-0.009-0.039-0.016l0.001 0.001c-0.031-0.011-0.057-0.021-0.082-0.033l0.004 0.002-11.413-6.57c-0.144-0.084-0.239-0.237-0.239-0.412v0-19.548c0-0.044 0.007-0.087 0.019-0.127l-0.001 0.003c0.004-0.015 0.013-0.025 0.018-0.040 0.009-0.029 0.019-0.053 0.030-0.076l-0.001 0.003c0.008-0.016 0.018-0.030 0.029-0.042l-0 0 0.042-0.057 0.047-0.034c0.018-0.015 0.034-0.030 0.052-0.043h0.001l5.708-3.285c0.068-0.040 0.15-0.064 0.237-0.064s0.169 0.024 0.239 0.065l-0.002-0.001 5.71 3.285c0.019 0.013 0.035 0.027 0.051 0.042l-0-0 0.048 0.034c0.016 0.018 0.025 0.038 0.042 0.057 0.012 0.012 0.022 0.026 0.031 0.041l0.001 0.001c0.010 0.020 0.020 0.044 0.029 0.069l0.001 0.004 0.016 0.040c0.011 0.035 0.018 0.076 0.018 0.118 0 0.002 0 0.004-0 0.006v-0 12.208l4.756-2.737v-6.241c0-0.001 0-0.002 0-0.002 0-0.043 0.006-0.085 0.017-0.125l-0.001 0.003c0.004-0.013 0.013-0.025 0.016-0.040 0.010-0.030 0.020-0.054 0.032-0.078l-0.002 0.004c0.009-0.015 0.023-0.025 0.032-0.042 0.015-0.019 0.027-0.038 0.042-0.054 0.014-0.013 0.029-0.025 0.045-0.035l0.001-0.001c0.018-0.013 0.033-0.029 0.052-0.040h0.001l5.708-3.286c0.068-0.040 0.15-0.064 0.237-0.064s0.169 0.024 0.239 0.065l-0.002-0.001 5.708 3.286c0.020 0.013 0.034 0.027 0.053 0.039 0.015 0.013 0.032 0.023 0.046 0.035 0.016 0.018 0.028 0.038 0.043 0.056 0.011 0.012 0.021 0.026 0.030 0.040l0.001 0.001c0.012 0.022 0.022 0.047 0.030 0.073l0.001 0.003c0.008 0.012 0.014 0.025 0.019 0.039l0 0.001z"/>
</symbol>


<symbol id="message-square-code" viewBox="0 0 24 24" fill="none" stroke="currentColor" stroke-width="2" stroke-linecap="round" stroke-linejoin="round">
  <path d="M22 17a2 2 0 0 1-2 2H6.828a2 2 0 0 0-1.414.586l-2.202 2.202A.71.71 0 0 1 2 21.286V5a2 2 0 0 1 2-2h16a2 2 0 0 1 2 2z" />
  <path d="m10 8-3 3 3 3" />
  <path d="m14 14 3-3-3-3" />
</symbol>

<symbol id="eye-icon" viewBox="0 0 24 24" fill="none" stroke="currentColor" stroke-width="2" stroke-linecap="round" stroke-linejoin="round">
  <path d="M2.062 12.348a1 1 0 0 1 0-.696 10.75 10.75 0 0 1 19.876 0 1 1 0 0 1 0 .696 10.75 10.75 0 0 1-19.876 0" />
  <circle cx="12" cy="12" r="3" />
</symbol>


<symbol id="grao-icon" viewBox="0 0 286 183" preserveAspectRatio="xMidYMid meet">
    <g transform="translate(0,183) scale(0.1,-0.1)" fill="currentColor" stroke="none">
<path d="M1155 1793 c-120 -80 -210 -187 -274 -324 -48 -104 -63 -171 -61
-278 2 -147 35 -245 131 -387 57 -86 112 -142 200 -204 l56 -39 21 22 22 23
-52 39 c-92 71 -199 234 -239 365 -30 97 -32 264 -5 355 41 137 127 272 232
365 57 51 61 56 46 73 -20 23 -30 22 -77 -10z m-133 -200 c-45 -73 -73 -135
-103 -228 -8 -25 -13 -91 -13 -175 0 -178 19 -238 137 -430 39 -64 -11 -13
-63 65 -65 96 -90 148 -111 230 -37 139 -19 280 52 420 34 66 130 195 145 195
2 0 -18 -35 -44 -77z"/>
<path d="M1304 1788 c-60 -40 -150 -129 -191 -189 -151 -220 -177 -455 -74
-674 69 -147 150 -241 297 -343 l31 -21 21 22 21 23 -55 43 c-56 44 -158 171
-195 243 -57 113 -85 310 -60 426 32 153 135 322 255 422 50 42 53 46 39 63
-22 24 -32 22 -89 -15z m-100 -150 c-4 -7 -22 -35 -39 -63 -39 -61 -81 -164
-96 -235 -7 -32 -9 -104 -6 -179 6 -166 31 -240 135 -398 29 -45 2 -22 -43 37
-57 74 -122 208 -135 279 -14 77 -12 176 6 251 19 81 85 214 136 274 38 44 58
60 42 34z"/>
<path d="M1425 1756 c-129 -102 -222 -235 -266 -381 -17 -55 -22 -95 -21 -185
0 -104 3 -123 32 -200 58 -157 142 -270 270 -366 l85 -63 22 21 22 21 -34 42
c-40 48 -102 179 -111 233 -25 154 -31 404 -13 537 5 39 9 78 10 88 0 26 46
144 74 192 14 23 36 52 50 65 23 22 24 25 8 42 -9 10 -23 18 -32 18 -9 0 -52
-29 -96 -64z m15 -98 c-60 -129 -73 -213 -73 -468 1 -249 11 -314 73 -453 22
-50 39 -91 37 -93 -8 -8 -108 81 -144 127 -115 150 -163 272 -163 419 0 165
45 284 158 424 51 62 140 142 149 133 2 -2 -15 -42 -37 -89z"/>
<path d="M1579 1243 c-7 -45 -3 -57 22 -63 42 -12 139 -78 197 -133 128 -124
327 -486 346 -632 3 -22 8 -63 12 -90 3 -29 1 -76 -6 -109 -6 -32 -10 -59 -8
-61 2 -2 15 -6 30 -10 24 -6 29 -2 49 37 55 107 81 208 88 338 7 148 -7 218
-68 345 -63 133 -161 223 -324 301 -104 49 -335 102 -338 77z m199 -63 c132
-37 276 -122 352 -207 55 -62 115 -185 136 -281 23 -103 14 -245 -22 -356 -40
-123 -50 -125 -57 -14 -11 150 -58 284 -167 473 -107 187 -177 273 -287 352
-35 25 -63 47 -63 49 0 9 39 3 108 -16z"/>
<path d="M1730 714 c-8 -3 -26 -20 -39 -39 -21 -31 -22 -38 -11 -65 33 -80
144 -67 155 17 7 54 -52 102 -105 87z m58 -73 c5 -32 -23 -54 -49 -40 -19 10
-26 49 -12 63 4 4 19 6 33 4 18 -2 26 -10 28 -27z"/>
<path d="M1526 403 c-12 -24 -53 -81 -86 -120 -17 -20 -74 -15 -105 8 l-27 22
37 13 c53 18 62 30 41 53 -31 35 -176 39 -176 6 0 -5 6 -10 13 -10 8 0 11 -18
9 -63 -3 -52 -1 -62 13 -62 13 0 15 7 11 35 -7 43 3 44 49 3 24 -20 52 -34 80
-38 40 -6 46 -4 73 25 23 23 39 31 70 32 36 2 41 -1 50 -27 6 -16 20 -33 31
-40 26 -14 27 0 1 33 -20 25 -26 48 -12 46 18 -3 32 2 32 12 0 6 -9 9 -20 6
-14 -4 -24 2 -32 16 -6 12 -10 22 -9 22 1 0 -2 12 -8 28 -6 15 -13 27 -15 27
-3 0 -12 -12 -20 -27z m-159 -37 c13 -12 -20 -26 -64 -26 -45 0 -61 13 -44 34
11 13 93 7 108 -8z m191 -11 c11 -24 10 -25 -18 -25 -34 0 -35 2 -18 30 17 26
22 25 36 -5z"/>
<path d="M102 404 c-12 -10 -14 -16 -6 -21 6 -5 8 -17 4 -28 -10 -28 6 -87 26
-102 10 -7 27 -10 38 -7 28 9 76 43 76 55 0 14 -9 11 -37 -11 -30 -24 -56 -26
-73 -5 -22 27 -4 45 44 45 48 0 76 7 76 20 0 4 -30 5 -66 2 -61 -4 -66 -3 -62
14 2 15 16 21 66 28 34 5 62 13 62 18 0 14 -128 7 -148 -8z"/>
<path d="M595 411 c-17 -7 -21 -19 -23 -69 -2 -54 1 -63 23 -80 29 -23 59 -19
93 11 33 30 27 40 -10 17 -42 -25 -64 -25 -78 0 -16 30 -4 40 45 40 46 0 75 7
75 19 0 4 -27 5 -60 3 -55 -4 -60 -3 -60 16 0 16 9 20 60 26 33 4 60 11 60 16
0 12 -97 12 -125 1z"/>
<path d="M761 401 c-15 -27 -14 -124 1 -139 15 -15 70 -15 121 -1 59 16 43 26
-30 17 -40 -4 -71 -4 -77 2 -5 5 -5 32 1 70 10 62 2 86 -16 51z"/>
<path d="M20 338 c0 -40 5 -80 10 -88 5 -8 10 -13 10 -10 8 139 7 170 -6 170
-11 0 -14 -17 -14 -72z"/>
<path d="M318 395 c-51 -28 -33 -56 47 -76 96 -25 84 -45 -27 -48 -60 -2 -70
0 -65 13 8 20 -7 21 -22 2 -19 -23 17 -36 97 -36 54 0 75 4 93 19 23 19 23 20
5 39 -10 12 -32 24 -50 27 -99 20 -106 49 -11 49 34 0 54 4 52 11 -6 16 -89
16 -119 0z"/>
<path d="M1082 389 c-59 -29 -95 -74 -81 -100 18 -35 54 -39 139 -18 10 3 14
-3 13 -15 -2 -24 14 -66 24 -66 10 0 10 126 0 136 -4 5 -10 -1 -13 -12 -5 -20
-27 -26 -104 -28 -25 -1 -35 4 -38 16 -4 22 66 69 115 77 20 3 35 11 35 16 -2
18 -46 15 -90 -6z"/>
<path d="M1704 402 c-21 -13 -54 -77 -54 -103 0 -14 5 -30 12 -37 26 -26 122
-7 161 32 41 42 -5 116 -72 116 -20 0 -41 -4 -47 -8z m96 -34 c11 -12 19 -29
18 -37 -8 -41 -131 -82 -144 -48 -3 9 2 32 12 52 26 56 78 71 114 33z"/>
<path d="M20 144 c0 -5 7 -28 16 -51 21 -54 45 -57 63 -5 8 20 16 43 19 51 3
8 0 12 -8 9 -8 -2 -19 -20 -26 -39 l-11 -34 -10 35 c-5 20 -17 36 -26 38 -9 2
-17 0 -17 -4z"/>
<path d="M290 125 c-6 -14 -14 -36 -20 -50 -8 -21 -7 -25 9 -25 12 0 24 14 35
38 14 32 15 33 12 9 -2 -15 -1 -25 2 -23 3 3 11 -2 18 -12 21 -29 24 -9 6 41
-19 53 -46 63 -62 22z"/>
<path d="M532 100 l0 -50 41 1 c23 1 32 4 20 6 -20 4 -23 11 -23 49 0 37 -3
44 -19 44 -17 0 -20 -7 -19 -50z"/>
<path d="M770 100 l0 -50 38 1 c23 1 28 3 15 6 -27 5 -31 39 -5 46 16 4 16 5
0 6 -26 2 -22 29 5 34 13 3 8 5 -15 6 l-38 1 0 -50z"/>
<path d="M1000 100 c0 -37 4 -50 15 -50 11 0 13 8 9 33 l-6 32 29 -33 c40 -46
53 -42 53 18 0 28 -4 50 -10 50 -5 0 -10 -15 -10 -32 l0 -33 -21 33 c-12 17
-29 32 -40 32 -16 0 -19 -8 -19 -50z"/>
<path d="M1287 132 c-22 -24 -21 -45 1 -65 20 -18 72 -23 72 -8 0 5 -9 7 -19
4 -13 -3 -23 2 -30 16 -16 29 3 65 30 58 10 -3 19 -1 19 4 0 16 -57 9 -73 -9z"/>
<path d="M1520 100 c0 -43 3 -50 20 -50 17 0 20 7 20 50 0 43 -3 50 -20 50
-17 0 -20 -7 -20 -50z"/>
<path d="M1750 125 c-6 -14 -14 -36 -20 -50 -8 -21 -7 -25 9 -25 12 0 24 14
35 38 14 32 15 33 12 9 -2 -15 -1 -25 2 -23 3 3 11 -2 18 -12 21 -29 24 -9 6
41 -19 53 -46 63 -62 22z"/>
<path d="M2540 125 c0 -13 23 -15 156 -15 120 0 155 3 152 13 -4 9 -46 13
-156 15 -131 2 -152 0 -152 -13z"/>
</g>
</symbol>

 <symbol id="baleares-icon" viewBox="0 0 292 172" preserveAspectRatio="xMidYMid meet">
    <g transform="translate(0,172) scale(0.1,-0.1)" fill="currentColor" stroke="none">
<path d="M840 1605 l0 -65 90 0 90 0 0 -465 0 -465 -80 0 -80 0 0 -45 0 -45
910 0 910 0 0 55 0 55 -765 -2 -765 -3 0 458 0 457 845 0 845 0 0 65 0 65
-1000 0 -1000 0 0 -65z m1982 5 l-4 -50 -836 -2 -837 -3 -3 -472 -2 -473 765
0 765 0 0 -40 0 -40 -900 0 -900 0 0 35 0 35 80 0 80 0 -2 478 -3 477 -88 0
-87 0 0 53 0 52 988 0 987 0 -3 -50z"/>
<path d="M500 1551 c0 -50 -2 -91 -4 -91 -12 0 -141 82 -158 99 -10 12 -23 19
-29 16 -13 -8 -11 -35 2 -35 6 0 45 -31 86 -70 l74 -69 0 -88 c0 -48 0 -92 0
-96 -1 -5 -8 -1 -17 7 -19 20 -31 20 -31 2 0 -8 6 -12 13 -9 6 2 15 0 19 -6 3
-6 13 -11 21 -11 11 0 14 20 14 104 0 98 -2 106 -23 123 -34 27 -24 47 14 28
l29 -16 0 96 c0 78 3 95 15 95 12 0 15 -17 15 -96 l0 -96 35 21 c20 12 37 16
40 10 4 -5 1 -8 -7 -7 -7 2 -12 -3 -10 -9 1 -7 -2 -12 -7 -10 -5 1 -10 -2 -12
-8 -2 -5 -11 -19 -21 -29 -15 -17 -17 -30 -11 -85 3 -37 9 -76 12 -88 6 -21 8
-22 33 -9 22 12 26 12 21 1 -2 -8 -16 -21 -30 -31 -26 -16 -26 -17 -19 -118 3
-55 9 -118 12 -138 l6 -37 32 16 c17 8 38 22 48 30 11 10 18 11 23 3 9 -14
-14 -42 -28 -33 -5 3 -7 2 -4 -4 4 -5 -9 -23 -28 -40 l-34 -30 5 -79 c3 -43
12 -136 20 -206 8 -70 14 -153 15 -185 2 -95 6 -102 104 -160 91 -53 131 -69
85 -33 -14 11 -29 20 -33 20 -4 0 -33 16 -63 35 -30 19 -59 35 -64 35 -6 0
-10 22 -10 48 0 27 -6 97 -14 158 -8 60 -14 127 -14 149 -1 22 -5 78 -11 124
l-11 85 70 64 c39 35 67 69 64 74 -4 6 -3 8 3 5 6 -4 38 18 73 48 50 43 68 53
87 49 45 -12 73 47 38 76 -21 17 -63 -4 -67 -33 -3 -19 -65 -68 -138 -109 -17
-10 -29 -22 -25 -27 3 -5 0 -13 -6 -17 -8 -4 -9 -3 -5 4 12 20 -7 13 -54 -18
-55 -36 -55 -36 -63 112 l-5 108 64 50 c35 28 64 53 64 56 0 3 -5 2 -12 -2 -7
-4 -8 -3 -4 5 4 6 12 9 17 5 5 -3 27 7 47 23 20 15 43 26 50 25 15 -3 42 15
42 29 0 4 -7 14 -15 23 -18 18 -45 11 -45 -13 0 -13 -58 -61 -75 -61 -2 0 -32
-18 -67 -40 -71 -47 -70 -47 -82 55 l-6 60 59 59 c33 33 57 64 54 69 -3 6 -1
7 4 4 6 -4 17 0 24 9 7 9 23 20 36 25 25 9 32 39 8 39 -7 0 -18 -7 -22 -15 -8
-14 -147 -115 -159 -115 -3 0 -4 39 -3 88 l3 87 -27 3 -27 3 0 -90z m440 -435
c0 -6 -9 -17 -20 -23 -16 -11 -21 -10 -30 6 -14 26 15 58 36 40 8 -6 14 -17
14 -23z"/>
<path d="M1190 1095 l0 -395 325 0 325 0 0 55 0 55 -270 0 -270 0 0 110 0 110
209 0 209 0 4 56 c2 34 -1 58 -8 61 -6 2 -101 3 -212 1 l-202 -3 0 118 0 117
270 0 270 0 0 55 0 55 -325 0 -325 0 0 -395z m640 340 l0 -45 -272 -2 -273 -3
0 -125 0 -125 213 -3 212 -2 0 -45 0 -45 -212 -2 -213 -3 0 -115 0 -115 273
-3 272 -2 0 -45 0 -45 -315 0 -315 0 0 385 0 385 315 0 315 0 0 -45z"/>
<path d="M1900 1095 l0 -395 410 0 410 0 0 -295 0 -295 -1295 0 -1295 0 0 -45
0 -45 1353 2 1352 3 3 383 2 382 -425 0 -425 0 0 305 0 306 423 -1 422 -2 3
46 3 46 -470 0 -471 0 0 -395z m920 350 l0 -35 -420 0 -420 0 0 -315 0 -315
420 0 420 0 0 -370 0 -370 -1337 2 -1338 3 0 25 0 25 1295 5 1295 5 0 300 0
300 -412 3 -413 2 0 385 0 385 455 0 455 0 0 -35z"/>
<path d="M223 1393 c-28 -11 -3 -68 26 -61 7 2 57 -37 111 -87 l99 -90 1 -118
c0 -92 -3 -117 -12 -111 -7 4 -46 29 -86 56 -40 27 -78 45 -84 42 -6 -4 -8 -3
-5 3 7 11 -49 47 -62 38 -5 -3 -13 0 -17 6 -5 8 -2 10 7 5 8 -4 4 1 -7 11 -12
11 -24 29 -28 41 -15 45 -86 34 -86 -13 0 -31 36 -58 61 -45 13 8 28 0 66 -33
26 -23 81 -69 122 -102 134 -110 125 -98 117 -144 -3 -23 -11 -130 -16 -239
-6 -108 -13 -218 -16 -243 l-6 -45 -122 -62 -121 -61 359 0 c198 -1 357 2 354
5 -4 3 -156 5 -340 5 l-333 -1 61 28 c34 15 68 32 75 38 8 6 29 16 47 24 21 8
32 19 33 34 0 11 2 30 4 41 4 26 23 289 30 426 l5 107 -38 28 c-22 16 -40 34
-41 39 0 6 -5 10 -11 10 -17 0 -42 43 -29 51 8 5 9 3 4 -6 -5 -8 -4 -11 2 -7
5 3 34 -9 64 -29 l54 -34 3 132 3 133 -29 25 c-16 14 -28 33 -27 43 4 21 -79
82 -97 71 -7 -4 -8 -3 -4 4 4 6 -5 19 -19 28 -14 9 -25 24 -25 34 0 14 -23 34
-33 29 -1 0 -8 -3 -14 -6z m-63 -285 c0 -18 -33 -33 -50 -23 -13 8 -13 38 1
52 15 15 49 -5 49 -29z"/>
<path d="M2493 434 c-27 -21 -33 -32 -33 -64 0 -36 3 -40 52 -64 29 -14 62
-26 73 -26 12 0 30 -9 39 -19 14 -15 15 -24 6 -40 -23 -43 -140 -20 -140 27 0
7 -11 12 -25 12 -32 0 -32 -20 0 -59 71 -84 216 -52 215 48 -1 44 -26 65 -97
82 -26 7 -54 13 -61 15 -22 6 -26 36 -7 50 36 26 105 15 105 -17 0 -14 7 -19
29 -19 29 0 30 1 19 31 -23 67 -117 90 -175 43z m144 -16 c21 -20 31 -48 17
-48 -3 0 -15 11 -26 25 -16 20 -28 25 -67 25 -52 0 -71 -12 -71 -47 0 -26 38
-48 101 -58 73 -11 102 -73 55 -120 -33 -33 -70 -40 -118 -24 -53 17 -102 79
-63 79 8 0 15 -7 15 -15 0 -21 58 -55 93 -55 28 0 77 38 77 60 0 18 -38 49
-67 55 -16 4 -47 15 -70 25 -37 17 -43 24 -43 50 0 47 30 70 92 70 39 0 57 -5
75 -22z"/>
<path d="M870 304 l0 -145 88 2 c72 1 91 5 110 22 29 27 30 88 2 115 -18 17
-19 20 -5 32 25 21 19 75 -11 99 -22 17 -41 21 -105 21 l-79 0 0 -146z m177
114 c27 -25 29 -49 7 -83 -14 -22 -14 -25 5 -44 21 -21 28 -66 13 -87 -15 -23
-53 -34 -121 -34 l-71 0 0 135 0 135 72 0 c60 0 76 -4 95 -22z"/>
<path d="M910 370 l0 -50 54 0 c58 0 86 16 86 50 0 34 -28 50 -86 50 l-54 0 0
-50z m103 31 c16 -7 23 -16 22 -32 -2 -25 -26 -36 -82 -38 -32 -1 -33 0 -33
39 0 39 1 40 34 40 19 0 46 -4 59 -9z"/>
<path d="M910 245 l0 -55 55 0 c42 0 60 5 75 20 24 24 25 38 4 68 -13 19 -24
22 -75 22 l-59 0 0 -55z m131 23 c25 -38 -7 -68 -72 -68 l-49 0 0 46 0 47 57
-6 c31 -3 60 -12 64 -19z"/>
<path d="M1204 413 c-8 -21 -19 -47 -24 -58 -5 -11 -24 -59 -43 -107 l-34 -88
27 0 c23 0 29 6 39 40 l12 40 64 0 c52 0 65 -3 65 -15 0 -28 31 -65 55 -65 24
0 24 0 -15 93 -82 200 -81 197 -107 197 -18 0 -27 -9 -39 -37z m102 -90 c26
-65 52 -124 57 -131 6 -7 7 -15 4 -18 -10 -10 -27 6 -41 41 -16 38 -52 51
-115 40 -34 -6 -40 -11 -51 -46 -7 -21 -19 -39 -26 -39 -14 0 -10 13 51 160
15 36 28 70 29 75 3 19 17 35 30 35 8 0 34 -51 62 -117z"/>
<path d="M1229 394 c-6 -16 -17 -44 -25 -62 -21 -49 -19 -52 40 -52 l54 0 -23
66 c-12 36 -25 68 -28 71 -4 3 -11 -7 -18 -23z m37 -58 c8 -21 13 -40 10 -43
-2 -2 -20 -3 -40 -1 -36 3 -36 3 -22 30 8 15 18 42 22 60 6 25 9 28 11 13 3
-11 11 -37 19 -59z"/>
<path d="M1410 305 l0 -145 95 0 c88 0 95 1 95 20 0 18 -7 20 -75 20 l-75 0 0
125 c0 118 -1 125 -20 125 -19 0 -20 -7 -20 -145z m30 10 l0 -125 75 0 c43 0
75 -4 75 -10 0 -6 -35 -10 -85 -10 l-85 0 0 135 c0 83 4 135 10 135 6 0 10
-48 10 -125z"/>
<path d="M1630 305 l0 -145 115 0 c108 0 115 1 115 20 0 17 -8 20 -92 22 l-91
3 0 39 0 38 79 2 c74 1 79 2 82 24 3 21 1 22 -80 22 l-83 0 0 40 0 40 88 0
c80 0 87 2 87 20 0 19 -7 20 -110 20 l-110 0 0 -145z m210 125 c0 -6 -37 -10
-90 -10 l-90 0 0 -50 0 -50 80 0 c103 0 105 -18 3 -22 l-78 -3 0 -50 0 -50 93
-3 c128 -4 117 -22 -13 -22 l-105 0 0 135 0 135 100 0 c60 0 100 -4 100 -10z"/>
<path d="M1926 318 c-27 -73 -51 -139 -53 -145 -3 -8 3 -13 17 -13 16 0 26 10
37 40 l16 40 59 0 58 0 16 -40 c14 -34 21 -40 46 -40 29 0 29 0 14 28 -18 35
-56 120 -56 128 0 3 -11 30 -25 60 -14 30 -25 59 -25 64 0 6 -13 10 -28 10
-26 0 -30 -6 -76 -132z m91 110 c4 -7 31 -68 59 -135 34 -80 47 -123 39 -123
-7 0 -20 18 -29 39 -14 36 -20 40 -58 46 -59 9 -91 -6 -114 -52 -12 -26 -19
-33 -22 -21 -2 9 1 26 7 37 6 11 22 52 37 93 41 117 46 128 60 128 7 0 16 -6
21 -12z"/>
<path d="M1990 400 c0 -12 -6 -31 -14 -43 -7 -12 -16 -34 -20 -49 -6 -28 -6
-28 49 -28 l55 0 -21 53 c-12 28 -24 60 -26 70 -7 24 -23 22 -23 -3z m44 -87
c7 -21 4 -23 -28 -23 -41 0 -42 4 -19 62 l17 42 12 -29 c6 -17 15 -40 18 -52z"/>
<path d="M2170 305 c0 -145 0 -145 23 -145 22 0 23 3 19 60 l-4 60 38 0 c36
-1 74 -18 74 -34 0 -3 12 -24 26 -46 21 -32 33 -40 56 -40 l29 0 -24 40 c-13
23 -34 52 -45 65 l-22 25 29 14 c43 23 47 81 9 126 -16 17 -30 20 -113 20
l-95 0 0 -145z m204 116 c11 -13 16 -31 14 -56 -3 -33 -18 -50 -66 -71 -2 -1
11 -17 28 -35 17 -19 38 -47 46 -62 14 -27 14 -28 -3 -25 -10 2 -24 15 -31 30
-7 15 -28 44 -47 63 -29 31 -39 36 -72 33 l-38 -3 -3 -62 c-2 -35 -7 -63 -12
-63 -6 0 -10 56 -10 135 l0 135 88 0 c75 0 92 -3 106 -19z"/>
<path d="M2200 370 l0 -50 69 0 c91 0 120 26 91 81 -9 16 -22 19 -85 19 l-75
0 0 -50z m144 24 c38 -38 6 -64 -78 -64 l-56 0 0 40 0 40 59 0 c41 0 65 -5 75
-16z"/>
</g>
</symbol>

<symbol id="icon-moon" viewBox="0 0 24 24" fill="none" stroke="currentColor" stroke-width="2" stroke-linecap="round" stroke-linejoin="round">
  <path d="M12 3a6 6 0 0 0 9 9 9 9 0 1 1-9-9Z" />
</symbol>

<symbol id="icon-sun" viewBox="0 0 24 24" fill="none" stroke="currentColor" stroke-width="2" stroke-linecap="round" stroke-linejoin="round">
  <circle cx="12" cy="12" r="4" />
  <path d="M12 2v2" />
  <path d="M12 20v2" />
  <path d="m4.93 4.93 1.41 1.41" />
  <path d="m17.66 17.66 1.41 1.41" />
  <path d="M2 12h2" />
  <path d="M20 12h2" />
  <path d="m6.34 17.66-1.41 1.41" />
  <path d="m19.07 4.93-1.41 1.41" />
</symbol>


<symbol id="icon-menu" viewBox="0 0 24 24" fill="none" stroke="currentColor" stroke-width="2" stroke-linecap="round" stroke-linejoin="round">
  <line x1="3" x2="21" y1="6" y2="6" />
  <line x1="3" x2="21" y1="12" y2="12" />
  <line x1="3" x2="21" y1="18" y2="18" />
</symbol>

<symbol id="icon-close" viewBox="0 0 24 24" fill="none" stroke="currentColor" stroke-width="2" stroke-linecap="round" stroke-linejoin="round">
  <path d="M18 6 6 18" />
  <path d="m6 6 12 12" />
</symbol>


<symbol id="icon-edu" viewBox="0 0 48 48">
<path class="st0" d="M8.278,35.973c0,3.048,2.48,5.527,5.528,5.527h22.488c0.276,0,0.5-0.224,0.5-0.5v-1.53 c0-0.104-0.039-0.195-0.093-0.274c-0.006-0.009-0.004-0.021-0.01-0.03c-0.705-0.92-1.078-2.024-1.078-3.193s0.373-2.273,1.078-3.194 c0.006-0.008,0.004-0.02,0.01-0.029c0.054-0.08,0.093-0.171,0.093-0.275v-1.03h2.237c0.276,0,0.5-0.224,0.5-0.5v-1.53 c0-0.104-0.039-0.195-0.093-0.275c-0.006-0.009-0.003-0.021-0.01-0.029c-0.705-0.921-1.077-2.025-1.077-3.194 s0.373-2.273,1.077-3.194c0.006-0.008,0.004-0.02,0.01-0.029c0.054-0.08,0.093-0.171,0.093-0.275v-1.53c0-0.276-0.224-0.5-0.5-0.5 h-5.227v-4.659l3.947-1.862v3.428c-0.563,0.206-0.969,0.742-0.969,1.376c0,0.81,0.659,1.469,1.469,1.469 c0.811,0,1.47-0.659,1.47-1.469c0-0.634-0.406-1.17-0.97-1.376V13.08c0-0.088-0.029-0.166-0.068-0.238 c-0.01-0.019-0.022-0.034-0.035-0.051c-0.043-0.059-0.095-0.107-0.159-0.142c-0.008-0.005-0.012-0.015-0.021-0.019L25.854,6.55 c-0.138-0.066-0.297-0.066-0.435,0l-12.615,6.08c-0.173,0.083-0.284,0.26-0.283,0.452c0.001,0.193,0.112,0.368,0.287,0.45 l4.661,2.198v4.659h-0.926c-1.48,0-2.87,0.574-3.912,1.616c-1.042,1.042-1.615,2.431-1.615,3.912c0,1.894,0.958,3.567,2.415,4.564 c-1.337,0.09-2.585,0.627-3.536,1.579C8.852,33.102,8.278,34.491,8.278,35.973z M34.652,35.473H13.15c-0.276,0-0.5,0.224-0.5,0.5 s0.224,0.5,0.5,0.5h21.502c0.069,0.884,0.314,1.729,0.735,2.497H13.972c-1.653,0-2.998-1.344-2.998-2.997 c0-0.803,0.312-1.556,0.874-2.119c0.575-0.567,1.329-0.879,2.124-0.879h21.416C34.966,33.744,34.722,34.588,34.652,35.473z M37.39,25.417H15.887c-0.276,0-0.5,0.224-0.5,0.5s0.224,0.5,0.5,0.5H37.39c0.069,0.885,0.314,1.729,0.735,2.498H16.709 c-1.653,0-2.998-1.345-2.998-2.998c0-0.802,0.312-1.556,0.874-2.119c0.575-0.567,1.329-0.879,2.124-0.879h21.415 C37.703,23.688,37.459,24.533,37.39,25.417z M38.252,19.142c-0.259,0-0.469-0.21-0.469-0.469s0.21-0.469,0.469-0.469 s0.47,0.21,0.47,0.469S38.511,19.142,38.252,19.142z M14.184,13.075l11.454-5.52l11.453,5.52l-3.286,1.55v-1.448 c0-0.065-0.014-0.127-0.037-0.185c-0.008-0.021-0.022-0.037-0.033-0.057c-0.019-0.034-0.038-0.068-0.065-0.096 c-0.017-0.018-0.038-0.032-0.057-0.048c-0.028-0.022-0.056-0.044-0.089-0.06c-0.024-0.012-0.05-0.019-0.076-0.027 c-0.022-0.007-0.041-0.019-0.064-0.022l-1.819-0.291c-3.933-0.632-7.921-0.633-11.854,0l-1.82,0.291 c-0.023,0.004-0.042,0.016-0.064,0.022c-0.026,0.008-0.052,0.015-0.076,0.027c-0.033,0.016-0.06,0.037-0.089,0.06 c-0.02,0.016-0.04,0.029-0.057,0.048c-0.027,0.029-0.046,0.062-0.065,0.096c-0.011,0.019-0.025,0.036-0.033,0.057 c-0.023,0.058-0.037,0.119-0.037,0.185v1.448L14.184,13.075z M18.469,15.414v-1.81l1.4-0.224c3.827-0.615,7.708-0.615,11.537,0 l1.398,0.223v1.811v4.976H18.469V15.414z M12.016,25.917c0-1.214,0.47-2.353,1.322-3.205c0.854-0.853,1.992-1.323,3.205-1.323h1.426 h15.335h5.227v0.53H16.709c-1.059,0-2.063,0.415-2.828,1.169c-0.754,0.755-1.169,1.759-1.169,2.828c0,2.204,1.793,3.998,3.998,3.998 h21.822v0.53h-2.237H16.543C14.046,30.445,12.016,28.414,12.016,25.917z M13.806,31.445h2.737h19.251v0.53H13.972 c-1.059,0-2.062,0.415-2.828,1.169c-0.754,0.754-1.169,1.758-1.169,2.828c0,2.204,1.793,3.997,3.998,3.997h21.822v0.53H13.806 c-2.497,0-4.528-2.031-4.528-4.527c0-1.214,0.47-2.353,1.323-3.205C11.454,31.915,12.592,31.445,13.806,31.445z">
</path>
</symbol>

<symbol id="icon-project" viewBox="0 0 219 256">
  <path d="M74.497,26.841C74.497,13.122,85.619,2,99.338,2s24.841,11.122,24.841,24.841s-11.122,24.841-24.841,24.841
    S74.497,40.56,74.497,26.841z M194.263,116.041l11.666-60.649l-11.088-2.133l-10.773,56.007h-28.586
    c0.112-0.662,0.186-1.336,0.19-2.029c0.032-6.86-5.503-12.446-12.363-12.478l-49.004-0.225L80.906,58.619
    c-2.479-9.253-8.64-15.714-19.406-15.714c-11.473,0-19.169,10.43-23.135,21.196c-7.904,21.453-13.549,57.585-11.26,81.05
    c1.239,10.961,4.18,19.949,11.597,23.958H18.041V93.835H2.234v159.959h15.808v-68.876h74.535l-10.394,51.496
    c-1.604,7.947,3.538,15.689,11.484,17.293c0.98,0.197,1.957,0.293,2.92,0.293c6.843,0,12.967-4.811,14.373-11.777l9.152-45.342
    l12.66,33.953c2.202,5.906,7.802,9.555,13.756,9.555c1.704,0,3.436-0.299,5.126-0.93c7.596-2.832,11.458-11.286,8.625-18.882
    l-25.734-69.015c-2.141-5.743-7.625-9.55-13.753-9.55H82.342l-0.018-9.033h118.634v120.816h15.808V116.041H194.263z"/>
</symbol>

<symbol id="icon-skills" viewBox="0 0 512 512">
<path d="M268.18,162.303l-2.993,21.876c-0.55,4.023,1.157,8.023,4.441,10.41c1.918,1.393,4.191,2.105,6.479,2.105 c1.631,0,3.272-0.363,4.794-1.098l19.88-9.605l19.88,9.605c3.656,1.767,7.985,1.38,11.272-1.007 c3.284-2.387,4.991-6.386,4.441-10.408l-2.992-21.876l15.278-15.94c2.81-2.931,3.781-7.17,2.526-11.031 c-1.255-3.861-4.531-6.72-8.527-7.44l-21.729-3.914l-10.439-19.457c-1.919-3.578-5.65-5.81-9.711-5.81 c-4.061,0-7.791,2.233-9.711,5.81l-10.439,19.457l-21.729,3.914c-3.995,0.72-7.272,3.579-8.526,7.44 c-1.255,3.861-0.284,8.101,2.526,11.031L268.18,162.303z M289.779,144.725c3.31-0.597,6.168-2.672,7.757-5.636l3.244-6.047 l3.244,6.047c1.589,2.963,4.447,5.039,7.757,5.636l6.753,1.217l-4.749,4.954c-2.327,2.429-3.419,5.787-2.963,9.119l0.93,6.798 l-6.178-2.985c-1.514-0.732-3.154-1.098-4.795-1.098s-3.281,0.366-4.795,1.098l-6.178,2.984l0.931-6.797 c0.455-3.333-0.636-6.691-2.963-9.119l-4.749-4.955L289.779,144.725z"></path> <path d="M171.294,136.681h51.244c6.085,0,11.02-4.934,11.02-11.02s-4.935-11.02-11.02-11.02h-51.244 c-6.085,0-11.02,4.934-11.02,11.02S165.209,136.681,171.294,136.681z"></path> <path d="M171.294,180.762h51.244c6.085,0,11.02-4.934,11.02-11.02c0-6.086-4.935-11.02-11.02-11.02h-51.244 c-6.085,0-11.02,4.934-11.02,11.02C160.274,175.828,165.209,180.762,171.294,180.762z"></path> <path d="M268.18,276.814l-2.993,21.876c-0.55,4.022,1.157,8.023,4.441,10.409c3.285,2.388,7.615,2.774,11.273,1.007l19.88-9.605 l19.88,9.605c1.523,0.735,3.161,1.098,4.794,1.098c2.288,0,4.562-0.712,6.479-2.105c3.284-2.387,4.991-6.386,4.441-10.409 l-2.992-21.876l15.278-15.94c2.81-2.931,3.781-7.17,2.526-11.031c-1.255-3.861-4.531-6.72-8.527-7.44l-21.729-3.914 l-10.439-19.457c-1.919-3.578-5.65-5.81-9.711-5.81c-4.061,0-7.791,2.233-9.711,5.81l-10.439,19.457l-21.729,3.914 c-3.995,0.72-7.272,3.579-8.526,7.44c-1.255,3.861-0.284,8.101,2.526,11.031L268.18,276.814z M289.779,259.237 c3.31-0.597,6.168-2.672,7.757-5.636l3.244-6.047l3.244,6.047c1.589,2.963,4.447,5.04,7.757,5.636l6.753,1.217l-4.749,4.954 c-2.327,2.429-3.419,5.787-2.963,9.119l0.93,6.799l-6.178-2.985c-1.514-0.732-3.154-1.098-4.795-1.098s-3.281,0.366-4.795,1.098 l-6.178,2.984l0.931-6.798c0.455-3.332-0.636-6.691-2.963-9.119l-4.749-4.955L289.779,259.237z"></path> <path d="M171.294,251.194h51.244c6.085,0,11.02-4.934,11.02-11.02s-4.935-11.02-11.02-11.02h-51.244 c-6.085,0-11.02,4.934-11.02,11.02S165.209,251.194,171.294,251.194z"></path> <path d="M171.294,295.274h51.244c6.085,0,11.02-4.934,11.02-11.02s-4.935-11.02-11.02-11.02h-51.244 c-6.085,0-11.02,4.934-11.02,11.02C160.274,290.34,165.209,295.274,171.294,295.274z"></path> <path d="M268.18,391.328l-2.993,21.875c-0.55,4.022,1.157,8.023,4.441,10.409c1.918,1.394,4.191,2.105,6.479,2.105 c1.631,0,3.272-0.363,4.794-1.098l19.88-9.605l19.88,9.605c3.656,1.767,7.987,1.379,11.272-1.007s4.991-6.386,4.441-10.409 l-2.992-21.876l15.278-15.939c2.81-2.931,3.781-7.17,2.526-11.031c-1.255-3.861-4.53-6.721-8.526-7.44l-21.731-3.915 l-10.439-19.457c-1.919-3.578-5.65-5.81-9.711-5.81c-4.061,0-7.791,2.233-9.711,5.81l-10.439,19.457l-21.729,3.915 c-3.996,0.72-7.272,3.578-8.526,7.44c-1.255,3.861-0.284,8.1,2.526,11.031L268.18,391.328z M289.781,373.748 c3.31-0.596,6.167-2.671,7.756-5.636l3.244-6.047l3.244,6.047c1.589,2.963,4.445,5.039,7.756,5.636l6.754,1.217l-4.749,4.953 c-2.327,2.428-3.419,5.786-2.963,9.119l0.93,6.799l-6.178-2.985c-1.514-0.732-3.154-1.098-4.795-1.098s-3.281,0.366-4.795,1.098 l-6.178,2.985l0.931-6.798c0.455-3.332-0.636-6.691-2.963-9.119l-4.749-4.954L289.781,373.748z"></path> <path d="M171.294,365.706h51.244c6.085,0,11.02-4.934,11.02-11.02s-4.935-11.02-11.02-11.02h-51.244 c-6.085,0-11.02,4.934-11.02,11.02S165.209,365.706,171.294,365.706z"></path> <path d="M171.294,409.786h51.244c6.085,0,11.02-4.934,11.02-11.02s-4.935-11.02-11.02-11.02h-51.244 c-6.085,0-11.02,4.934-11.02,11.02S165.209,409.786,171.294,409.786z"></path> <path d="M424.509,16.53h-77.593v-5.51c0-6.086-4.935-11.02-11.02-11.02H176.105c-6.085,0-11.02,4.934-11.02,11.02v5.51H87.491 c-6.085,0-11.02,4.934-11.02,11.02v473.43c0,6.086,4.935,11.02,11.02,11.02h337.018c6.085,0,11.02-4.934,11.02-11.02V27.55 C435.529,21.464,430.596,16.53,424.509,16.53z M187.125,22.04h137.751v38.57H187.125V22.04z M369.409,82.651v363.228H142.591 V82.651H369.409z M413.489,489.96H98.511V38.57h66.574v22.04h-33.513c-6.085,0-11.02,4.934-11.02,11.02v385.269 c0,6.086,4.935,11.02,11.02,11.02h248.857c6.085,0,11.02-4.934,11.02-11.02V71.631c0-6.086-4.935-11.02-11.02-11.02h-33.512 V38.57h66.573V489.96z"></path> 
</symbol>

<symbol id="icon-work" viewBox="0 0 203.489 203.489">
  <path d="M70.933,19.629c9.788-3.561,20.346-5.507,31.35-5.507c10.497,0,20.695,1.769,30.272,5.143V81.7l-30.812,13.137L70.933,81.7
    V19.629z M198.489,114.731h-5.031c-0.015-1.444-0.084-2.867-0.155-4.269c-0.078-1.523-0.151-2.963-0.151-4.396
    c0-24.61-9.362-47.689-26.361-64.984c-7.157-7.282-15.345-13.172-24.234-17.584v61.505c0,2.004-1.196,3.813-3.039,4.6
    l-35.812,15.269c-0.626,0.267-1.294,0.4-1.961,0.4s-1.335-0.134-1.961-0.4L63.972,89.604c-1.843-0.786-3.039-2.596-3.039-4.6V23.961
    c-29.986,15.163-50.595,46.271-50.595,82.107c0,1.433-0.074,2.872-0.151,4.396c-0.072,1.401-0.141,2.824-0.155,4.269H5
    c-2.761,0-5,2.238-5,5s2.239,5,5,5h10.338h7.913V138.4v45.967c0,2.762,2.239,5,5,5s5-2.238,5-5V143.4h136.987v40.967
    c0,2.762,2.238,5,5,5s5-2.238,5-5V138.4v-13.669h7.913h10.338c2.762,0,5-2.238,5-5S201.251,114.731,198.489,114.731z
    M170.238,133.4H33.251v-8.669h136.987V133.4z"/>
</symbol>

<symbol id="icon-arrow" viewBox="0 0 24 24" fill="none" stroke="currentColor" stroke-width="2" stroke-linecap="round" stroke-linejoin="round">
  <path d="M9 13a1 1 0 0 0-1-1H5.061a1 1 0 0 1-.75-1.811l6.836-6.835a1.207 1.207 0 0 1 1.707 0l6.835 6.835a1 1 0 0 1-.75 1.811H16a1 1 0 0 0-1 1v6a1 1 0 0 1-1 1h-4a1 1 0 0 1-1-1z"/>
</symbol>



  <!-- Puedes añadir más símbolos aquí -->
</svg>